P3
# 8-bit ppm - RGB
3 3
255
223 168  38 133 139 196  43  55 136
150 151 152  41  42 104 237  18  97
  0 114 187 255 250 233 159  33 111
